<?xml version="1.0" encoding="UTF-8" standalone="no"?>
<!-- Created with Inkscape (http://www.inkscape.org/) -->

<svg
   xmlns:dc="http://purl.org/dc/elements/1.1/"
   xmlns:cc="http://creativecommons.org/ns#"
   xmlns:rdf="http://www.w3.org/1999/02/22-rdf-syntax-ns#"
   xmlns:svg="http://www.w3.org/2000/svg"
   xmlns="http://www.w3.org/2000/svg"
   xmlns:sodipodi="http://sodipodi.sourceforge.net/DTD/sodipodi-0.dtd"
   xmlns:inkscape="http://www.inkscape.org/namespaces/inkscape"
   id="svg4136"
   version="1.1"
   inkscape:version="0.91 r13725"
   width="33.246204"
   height="31.823132"
   viewBox="0 0 33.246204 31.823132"
   sodipodi:docname="star.svg">
  <metadata
     id="metadata4142">
    <rdf:RDF>
      <cc:Work
         rdf:about="">
        <dc:format>image/svg+xml</dc:format>
        <dc:type
           rdf:resource="http://purl.org/dc/dcmitype/StillImage" />
        <dc:title />
      </cc:Work>
    </rdf:RDF>
  </metadata>
  <defs
     id="defs4140" />
  <sodipodi:namedview
     pagecolor="#ffffff"
     bordercolor="#666666"
     borderopacity="1"
     objecttolerance="10"
     gridtolerance="10"
     guidetolerance="10"
     inkscape:pageopacity="0"
     inkscape:pageshadow="2"
     inkscape:window-width="1366"
     inkscape:window-height="706"
     id="namedview4138"
     showgrid="false"
     fit-margin-top="0"
     fit-margin-left="0"
     fit-margin-right="0"
     fit-margin-bottom="0"
     inkscape:zoom="11.313709"
     inkscape:cx="16.341363"
     inkscape:cy="16.557433"
     inkscape:window-x="-8"
     inkscape:window-y="-8"
     inkscape:window-maximized="1"
     inkscape:current-layer="svg4136" />
  <path
     id="path4734"
     style="fill:#000000"
     d="M 6.2342758,31.459753 C 6.0020148,31.179895 6.1072211,29.860151 6.6919948,25.717974 L 7.4512927,20.339573 3.8584587,16.591886 C 1.8824002,14.530659 0.03853868,12.290369 0.03125,12.129455 0.00910493,11.640553 0.17489724,11.262038 0.57002971,12.09004 c 0.1009589,0.21156 2.11388249,2.606155 3.44559509,3.948577 2.7161286,2.737971 3.7499999,3.94968 3.7499999,4.395041 0,0.338187 -0.3063127,2.810441 -0.6806951,5.493899 -0.3743824,2.683459 -0.6023004,4.957409 -0.5064845,5.053226 0.095816,0.09581 2.3805767,-0.924088 5.0772459,-2.266451 l 4.903037,-2.440663 4.903036,2.440663 c 2.69667,1.342363 4.975438,2.368257 5.063933,2.279765 0.08849,-0.08849 -0.210517,-2.571458 -0.664466,-5.517701 l -0.82536,-5.356806 3.842514,-3.848932 c 1.429296,-1.431683 3.50006,-3.38482 4.088436,-4.036764 0.03511,-0.0389 0.03072,-0.08798 0.0403,-0.138202 0.0088,-0.04604 -0.0087,-0.08046 -0.03156,-0.11455 -0.05358,-0.07975 -0.104818,-0.09561 -0.168509,-0.127172 -0.550436,-0.272788 0.30853,-0.523595 0.436148,0.140507 0.01137,0.03412 -0.0027,0.237642 -0.164258,0.451957 -0.596045,0.790736 -2.221901,2.630792 -3.791549,4.212591 l -3.627406,3.655486 0.743915,4.655173 c 0.409151,2.560344 0.747134,5.091594 0.751073,5.624999 0.0066,0.890581 -0.05095,0.968708 -0.704046,0.956121 -0.391163,-0.0075 -2.738906,-1.036596 -5.217206,-2.286794 l -4.506,-2.273089 -5.004349,2.416106 c -2.752392,1.328858 -5.0455712,2.416105 -5.0959536,2.416105 -0.050383,0 -0.2273152,-0.163521 -0.3931846,-0.363379 z M 12.756486,15.823229 c -0.01695,-2.060156 0.17478,-3.63839 1.055962,-3.644046 0.939429,0.0017 1.029357,1.46659 1.063156,3.640683 -0.01038,1.919472 0.01684,3.3343 -1.03293,3.358012 -1.040398,-0.01455 -1.072412,-2.192809 -1.086188,-3.354649 z m 5.571916,-0.18568 c 0,-1.105658 0.0028,-3.469584 1.090654,-3.469584 1.033214,0 1.017535,2.136199 1.018949,3.467028 0.0015,1.445143 0.02512,3.51573 -1.034449,3.51573 -0.926838,-0.0077 -1.059049,-1.771877 -1.075154,-3.513174 z M 0,11.72238 C 0,11.583695 0.3529095,11.39043 0.45959051,11.388388 0.96052617,11.378788 10.886076,9.6497788 10.969838,9.5575108 c 0.05246,-0.05779 1.203505,-2.1998937 2.557878,-4.7602384 2.466977,-4.66364432 3.032275,-5.34031072 3.737385,-4.47368697 0.15025,0.1846659 1.211542,2.13963537 2.358427,4.34437667 1.146886,2.2047413 2.245232,4.2273821 2.440769,4.4947576 0.282559,0.3863681 1.405553,0.6622701 5.471932,1.3443693 4.792554,0.803909 5.817864,1.074191 5.548166,1.337044 -0.05927,0.05776 -2.747651,-0.377886 -5.663599,-0.86008 C 22.820095,10.223262 22.05524,10.029845 21.636319,9.5212708 21.370805,9.1989335 20.169166,6.9696628 18.96601,4.5673356 16.985049,0.61197463 16.740389,0.23753233 16.375405,0.60251633 16.153729,0.82419283 14.911402,3.0224919 13.61468,5.4876254 L 11.257004,9.9696858 6.6018316,10.762061 c -2.5603447,0.435807 -5.0334054,0.869317 -5.4956894,0.963362 -0.20130244,0.04095 -0.42369229,0.08309 -0.6159515,0.10405 C 0.21400678,11.859583 0,12.111621 0,11.988048 Z"
     inkscape:connector-curvature="0"
     sodipodi:nodetypes="sscsssssscscscscssssscsscsccscssssccccccssccscssssscssssscssssss" />
</svg>
